# xmcd
# 
# Track frame offsets:
#     150
#     12852
#     34234
#     58572
#     80445
#     104924
#     125312
#     150568
#     170550
#     196042
#     221375
#     251033
#     281807
#     328513
# 
# Disc length: 4564
# 
# Revision: 0
# Processed by: cddbd v1.5.2PL0 Copyright (c) Steve Scherf et al.
# Submitted via: fre:ac v1.0.31
# 
DISCID=c111d20e
DTITLE=Various Artist - Illusion Memories CD 1
DYEAR=0
DGENRE=
TTITLE0=Illusion - Intro
TTITLE1=DJ Jan - Dream on White
TTITLE2=Karnak-X - House Of Pain
TTITLE3=DJ Wout - Wasichu
TTITLE4=DJ Jan - Xsanto
TTITLE5=Fiocco - Afflito
TTITLE6=At The Villa People - Open Your Eyes
TTITLE7=Tom Wilson - Techno Cat
TTITLE8=The Pusher - Sinthy
TTITLE9=Sweet Drop - Human Nature
TTITLE10=Club Royale - Loosing Sleep
TTITLE11=Zolex - Beautiful Inside
TTITLE12=Miro - Spaceman
TTITLE13=Age Of Love - Age Of Love
EXTD=
EXTT0=
EXTT1=
EXTT2=
EXTT3=
EXTT4=
EXTT5=
EXTT6=
EXTT7=
EXTT8=
EXTT9=
EXTT10=
EXTT11=
EXTT12=
EXTT13=
PLAYORDER=
